<svg xmlns="http://www.w3.org/2000/svg" viewBox="0 0 980 240" role="img" aria-labelledby="title desc">
  <title id="title">IQB ContentPool Logo</title>
  <desc id="desc">Violet brandmark with IQB ContentPool wordmark</desc>

  <defs>
    <linearGradient id="bg" x1="22" y1="18" x2="206" y2="206" gradientUnits="userSpaceOnUse">
      <stop offset="0" stop-color="#3B0764"/>
      <stop offset="0.55" stop-color="#5B21B6"/>
      <stop offset="1" stop-color="#7C3AED"/>
    </linearGradient>
    <radialGradient id="shine" cx="70" cy="62" r="120" gradientUnits="userSpaceOnUse">
      <stop offset="0" stop-color="#FFFFFF" stop-opacity="0.25"/>
      <stop offset="1" stop-color="#FFFFFF" stop-opacity="0"/>
    </radialGradient>
    <linearGradient id="word" x1="270" y1="70" x2="770" y2="160" gradientUnits="userSpaceOnUse">
      <stop offset="0" stop-color="#3B0764"/>
      <stop offset="1" stop-color="#6D28D9"/>
    </linearGradient>
  </defs>

  <rect x="20" y="20" width="190" height="190" rx="46" fill="url(#bg)"/>
  <rect x="20" y="20" width="190" height="190" rx="46" fill="url(#shine)"/>

  <path d="M150 82C139 70 123 63 105 63C72 63 45 90 45 124C45 158 72 185 105 185C123 185 139 178 150 166"
        fill="none" stroke="#F5F3FF" stroke-width="17" stroke-linecap="round"/>

  <path d="M150 95C160 101 166 111 166 124C166 137 160 147 150 153"
        fill="none" stroke="#DDD6FE" stroke-width="2" stroke-linecap="round" stroke-opacity="0.5"/>

  <circle cx="161" cy="124" r="11" fill="none" stroke="#C4B5FD" stroke-width="1.6" stroke-opacity="0.35"/>
  <circle cx="161" cy="124" r="8.5" fill="#EDE9FE" stroke="#F5F3FF" stroke-width="1"/>
  <circle cx="163.1" cy="121.9" r="1.5" fill="#FFFFFF" opacity="0.72"/>
  <circle cx="150" cy="95" r="4.9" fill="#C4B5FD"/>
  <circle cx="150" cy="153" r="4.9" fill="#C4B5FD"/>

  <text x="250" y="121"
        font-family="Poppins, Avenir Next, Segoe UI, sans-serif"
        font-size="72"
        font-weight="700"
        letter-spacing="0.2"
        fill="url(#word)">IQB ContentPool</text>

  <rect x="254" y="146" width="432" height="8" rx="4" fill="#8B5CF6" opacity="0.35"/>
</svg>
