<svg xmlns="http://www.w3.org/2000/svg" viewBox="0 0 256 256" role="img" aria-labelledby="title desc">
  <title id="title">IQB ContentPool Favicon</title>
  <desc id="desc">Violet C monogram favicon</desc>
  <defs>
    <linearGradient id="bg" x1="18" y1="20" x2="236" y2="236" gradientUnits="userSpaceOnUse">
      <stop offset="0" stop-color="#3B0764"/>
      <stop offset="0.55" stop-color="#5B21B6"/>
      <stop offset="1" stop-color="#7C3AED"/>
    </linearGradient>
    <radialGradient id="shine" cx="66" cy="58" r="132" gradientUnits="userSpaceOnUse">
      <stop offset="0" stop-color="#FFFFFF" stop-opacity="0.26"/>
      <stop offset="1" stop-color="#FFFFFF" stop-opacity="0"/>
    </radialGradient>
  </defs>

  <rect width="256" height="256" rx="58" fill="url(#bg)"/>
  <rect width="256" height="256" rx="58" fill="url(#shine)"/>

  <path d="M171 80C159 66 141 58 121 58C84 58 55 88 55 126C55 164 84 194 121 194C141 194 159 186 171 172"
        fill="none" stroke="#F5F3FF" stroke-width="20" stroke-linecap="round"/>

  <path d="M171 93C183 101 190 112 190 126C190 140 183 151 171 159"
        fill="none" stroke="#DDD6FE" stroke-width="2.5" stroke-linecap="round" stroke-opacity="0.5"/>

  <circle cx="184" cy="126" r="13" fill="none" stroke="#C4B5FD" stroke-width="2" stroke-opacity="0.35"/>
  <circle cx="184" cy="126" r="10" fill="#EDE9FE" stroke="#F5F3FF" stroke-width="1.2"/>
  <circle cx="186.4" cy="123.4" r="2" fill="#FFFFFF" opacity="0.72"/>
  <circle cx="171" cy="93" r="5.6" fill="#C4B5FD"/>
  <circle cx="171" cy="159" r="5.6" fill="#C4B5FD"/>
</svg>
